<svg width="22" height="22" viewBox="0 0 22 22" fill="none" xmlns="http://www.w3.org/2000/svg">
<path d="M21.6732 4.52555C20.9078 4.86472 20.0855 5.09389 19.2211 5.19747C20.113 4.66378 20.7803 3.82381 21.0985 2.8343C20.2605 3.33204 19.3434 3.6824 18.387 3.87014C17.7438 3.18343 16.8919 2.72827 15.9636 2.57532C15.0352 2.42237 14.0824 2.58019 13.2529 3.02428C12.4235 3.46837 11.7638 4.17388 11.3764 5.03128C10.989 5.88868 10.8955 6.84999 11.1105 7.76597C9.4125 7.68072 7.75145 7.23939 6.2351 6.47063C4.71874 5.70187 3.38098 4.62287 2.30862 3.30364C1.94196 3.93614 1.73113 4.66947 1.73113 5.45047C1.73072 6.15355 1.90385 6.84586 2.23518 7.46597C2.56651 8.08609 3.04577 8.61484 3.63046 9.0053C2.95238 8.98373 2.28926 8.8005 1.69629 8.47089V8.52589C1.69622 9.51198 2.03732 10.4677 2.66171 11.231C3.2861 11.9942 4.15532 12.5179 5.12188 12.7132C4.49284 12.8835 3.83335 12.9085 3.19321 12.7866C3.46591 13.635 3.99712 14.377 4.71246 14.9086C5.4278 15.4401 6.29147 15.7347 7.18254 15.7511C5.66989 16.9385 3.80177 17.5826 1.87871 17.5798C1.53806 17.5799 1.19769 17.56 0.859375 17.5202C2.81139 18.7753 5.08369 19.4414 7.40438 19.4388C15.2602 19.4388 19.5548 12.9323 19.5548 7.2893C19.5548 7.10597 19.5502 6.9208 19.542 6.73747C20.3773 6.13336 21.0984 5.38529 21.6714 4.5283L21.6732 4.52555Z" fill="#00ACEE"/>
</svg>
